# xmcd CD database file
#
# Track frame offsets:
#	150
#	20912
#	40843
#	55997
#	82463
#	96496
#	110279
#
# Disc length: 1701 seconds
#
# Revision: 1
# Processed by: cddbd v1.5.2PL0 Copyright (c) Steve Scherf et al.
# Submitted via: CDex 1.70beta2
#
DISCID=6106a307
DTITLE=B.B. KING - Friends
DYEAR=1974
DGENRE=Blues
TTITLE0=Friends
TTITLE1=I Got Them Blues
TTITLE2=Baby I'm Yours
TTITLE3=Up At 5 AM
TTITLE4=Philadelphia
TTITLE5=When Everything Else Is Gone
TTITLE6=My Song
EXTD=YEAR: 1974
EXTT0=
EXTT1=
EXTT2=
EXTT3=
EXTT4=
EXTT5=
EXTT6=
PLAYORDER=
